<?xml version="1.0" encoding="iso-8859-1"?>
<!-- Generator: Adobe Illustrator 19.0.0, SVG Export Plug-In . SVG Version: 6.00 Build 0)  -->
<svg version="1.1" id="Layer_1" xmlns="http://www.w3.org/2000/svg" xmlns:xlink="http://www.w3.org/1999/xlink" x="0px" y="0px"
	 viewBox="0 0 512 512" style="enable-background:new 0 0 512 512;" xml:space="preserve">
<g>
	<g>
		<path d="M329.496,183.058V42.902c0-5.633-4.567-10.199-10.199-10.199H289.39C289.012,14.607,274.186,0,256.001,0
			s-33.012,14.607-33.389,32.703h-29.907c-5.632,0-10.199,4.566-10.199,10.199v140.157h-0.001
			c-60.465,28.43-99.164,89.043-99.164,156.281C83.341,434.545,160.796,512,256.001,512S428.66,434.545,428.66,339.34
			C428.66,272.102,389.962,211.489,329.496,183.058z M256.001,20.398c6.936,0,12.623,5.458,12.99,12.304h-25.98
			C243.378,25.856,249.064,20.398,256.001,20.398z M202.902,115.342h59.428c5.632,0,10.199-4.566,10.199-10.199
			c0-5.633-4.567-10.199-10.199-10.199h-59.428V84.748h59.428c5.632,0,10.199-4.566,10.199-10.199
			c0-5.633-4.567-10.199-10.199-10.199h-59.428V53.1h106.196v0.001v72.436H202.902V115.342z M256.001,491.602
			c-83.957,0-152.261-68.304-152.261-152.262c0-61.307,36.482-116.369,92.941-140.276c3.772-1.597,6.223-5.295,6.223-9.391v-43.736
			h42.898V254.94l-56.617,56.617c-3.983,3.983-3.983,10.441,0,14.424c1.992,1.992,4.602,2.987,7.212,2.987s5.22-0.996,7.212-2.987
			l59.603-59.603c1.912-1.912,2.987-4.507,2.987-7.212V145.936h42.899v43.736c0,4.096,2.45,7.795,6.223,9.391
			c56.46,23.907,92.941,78.968,92.941,140.276C408.261,423.298,339.957,491.602,256.001,491.602z"/>
	</g>
</g>
<g>
	<g>
		<path d="M320.706,309.447l-30.065-30.066c-3.984-3.983-10.44-3.983-14.425,0c-3.983,3.983-3.983,10.441,0,14.425l30.066,30.066
			c1.992,1.992,4.602,2.987,7.212,2.987s5.22-0.995,7.212-2.987C324.689,319.889,324.689,313.431,320.706,309.447z"/>
	</g>
</g>
<g>
	<g>
		<path d="M348.134,336.876l-2.636-2.638c-3.984-3.982-10.44-3.982-14.425,0c-3.983,3.983-3.983,10.441,0,14.425l2.638,2.638
			c1.992,1.991,4.602,2.987,7.212,2.987s5.22-0.996,7.212-2.987C352.117,347.318,352.117,340.859,348.134,336.876z"/>
	</g>
</g>
<g>
</g>
<g>
</g>
<g>
</g>
<g>
</g>
<g>
</g>
<g>
</g>
<g>
</g>
<g>
</g>
<g>
</g>
<g>
</g>
<g>
</g>
<g>
</g>
<g>
</g>
<g>
</g>
<g>
</g>
</svg>
